# xmcd
#
# Track frame offsets: 
#        150
#        31820
#        73176
#        107908
#        136614
#        162315
#        188300
#        234384
#        268496
#        291302
#
# Disc length: 4144 seconds
#
# Revision: 2
# Processed by: cddbd v1.5.2PL0 Copyright (c) Steve Scherf et al.
# Submitted via: ExactAudioCopy v0.99pb5
#
DISCID=8c102e0a
DTITLE=Alegre Allstars - Te Invita
DYEAR=2006
DGENRE=Salsa
TTITLE0=Alegre Te Invita
TTITLE1=Perdido
TTITLE2=Agúsese Usted
TTITLE3=Se Acabó Lo Que Se Daba
TTITLE4=El Manicero
TTITLE5=Yumbambé
TTITLE6=Bobby, Bajo Y Clarinete
TTITLE7=Manteca
TTITLE8=Sonó Sonó
TTITLE9=Estoy Buscando A Kako
EXTD=
EXTT0=
EXTT1=
EXTT2=
EXTT3=
EXTT4=
EXTT5=
EXTT6=
EXTT7=
EXTT8=
EXTT9=
PLAYORDER=
